<svg width="145" height="50" viewBox="0 0 145 50" fill="none" xmlns="http://www.w3.org/2000/svg">
<path d="M47.2074 9.77131V7.81818H60.8438V9.77131H55.1264V26H52.9247V9.77131H47.2074ZM66.0528 17.7969V26H63.9577V7.81818H66.0528V14.4943H66.2304C66.55 13.79 67.0294 13.2307 67.6686 12.8164C68.3137 12.3962 69.1719 12.1861 70.2432 12.1861C71.1724 12.1861 71.9862 12.3725 72.6846 12.7454C73.383 13.1123 73.9245 13.6776 74.3092 14.4411C74.6998 15.1986 74.8952 16.1634 74.8952 17.3352V26H72.8V17.4773C72.8 16.3942 72.5189 15.5567 71.9566 14.9648C71.4002 14.3671 70.6279 14.0682 69.6395 14.0682C68.9529 14.0682 68.3374 14.2132 67.7929 14.5032C67.2543 14.7932 66.8282 15.2164 66.5145 15.7727C66.2067 16.3291 66.0528 17.0038 66.0528 17.7969ZM87.3219 20.4247V12.3636H89.4171V26H87.3219V23.6918H87.1799C86.8603 24.3842 86.3631 24.9731 85.6884 25.4585C85.0137 25.9379 84.1614 26.1776 83.1316 26.1776C82.2793 26.1776 81.5217 25.9911 80.8588 25.6183C80.196 25.2395 79.6751 24.6713 79.2963 23.9137C78.9176 23.1502 78.7282 22.1884 78.7282 21.0284V12.3636H80.8233V20.8864C80.8233 21.8807 81.1015 22.6738 81.6578 23.2656C82.2201 23.8575 82.9363 24.1534 83.8063 24.1534C84.3271 24.1534 84.8568 24.0202 85.3954 23.7539C85.9399 23.4876 86.3957 23.0792 86.7626 22.5288C87.1355 21.9783 87.3219 21.277 87.3219 20.4247ZM95.3497 17.7969V26H93.2545V12.3636H95.2787V14.4943H95.4562C95.7758 13.8018 96.2612 13.2455 96.9122 12.8253C97.5632 12.3991 98.4037 12.1861 99.4335 12.1861C100.357 12.1861 101.165 12.3755 101.857 12.7543C102.55 13.1271 103.088 13.6953 103.473 14.4588C103.858 15.2164 104.05 16.1752 104.05 17.3352V26H101.955V17.4773C101.955 16.406 101.677 15.5715 101.12 14.9737C100.564 14.37 99.8005 14.0682 98.8298 14.0682C98.161 14.0682 97.5632 14.2132 97.0365 14.5032C96.5157 14.7932 96.1043 15.2164 95.8025 15.7727C95.5006 16.3291 95.3497 17.0038 95.3497 17.7969ZM113.028 26.2841C111.891 26.2841 110.888 25.997 110.018 25.4229C109.148 24.8429 108.467 24.0262 107.976 22.9727C107.485 21.9132 107.239 20.6615 107.239 19.2173C107.239 17.785 107.485 16.5421 107.976 15.4886C108.467 14.4351 109.151 13.6213 110.027 13.0472C110.903 12.4731 111.915 12.1861 113.063 12.1861C113.951 12.1861 114.652 12.334 115.167 12.63C115.688 12.92 116.085 13.2514 116.357 13.6243C116.635 13.9912 116.851 14.2931 117.005 14.5298H117.183V7.81818H119.278V26H117.254V23.9048H117.005C116.851 24.1534 116.632 24.4671 116.348 24.8459C116.064 25.2187 115.658 25.5531 115.132 25.8491C114.605 26.1391 113.904 26.2841 113.028 26.2841ZM113.312 24.402C114.152 24.402 114.862 24.183 115.442 23.745C116.022 23.3011 116.463 22.6886 116.765 21.9073C117.067 21.1201 117.218 20.2116 117.218 19.1818C117.218 18.1638 117.07 17.2731 116.774 16.5096C116.478 15.7402 116.04 15.1424 115.46 14.7163C114.88 14.2842 114.164 14.0682 113.312 14.0682C112.424 14.0682 111.684 14.296 111.092 14.7518C110.506 15.2016 110.065 15.8142 109.77 16.5895C109.48 17.3589 109.335 18.223 109.335 19.1818C109.335 20.1525 109.482 21.0343 109.778 21.8274C110.08 22.6146 110.524 23.242 111.11 23.7095C111.702 24.1712 112.436 24.402 113.312 24.402ZM129.123 26.2841C127.809 26.2841 126.676 25.9941 125.723 25.4141C124.776 24.8281 124.045 24.0114 123.53 22.9638C123.021 21.9103 122.767 20.6851 122.767 19.2884C122.767 17.8916 123.021 16.6605 123.53 15.5952C124.045 14.5239 124.761 13.6894 125.679 13.0916C126.602 12.4879 127.679 12.1861 128.91 12.1861C129.62 12.1861 130.322 12.3045 131.014 12.5412C131.707 12.7779 132.337 13.1626 132.905 13.6953C133.473 14.2221 133.926 14.9205 134.263 15.7905C134.601 16.6605 134.77 17.7318 134.77 19.0043V19.892H124.258V18.081H132.639C132.639 17.3116 132.485 16.625 132.177 16.0213C131.875 15.4176 131.443 14.9412 130.881 14.592C130.325 14.2428 129.668 14.0682 128.91 14.0682C128.076 14.0682 127.354 14.2753 126.744 14.6896C126.14 15.098 125.676 15.6307 125.35 16.2876C125.025 16.9446 124.862 17.6489 124.862 18.4006V19.608C124.862 20.6378 125.039 21.5108 125.395 22.2269C125.756 22.9371 126.256 23.4787 126.895 23.8516C127.534 24.2185 128.277 24.402 129.123 24.402C129.674 24.402 130.171 24.325 130.615 24.1712C131.065 24.0114 131.452 23.7746 131.778 23.4609C132.103 23.1413 132.355 22.7448 132.532 22.2713L134.556 22.8395C134.343 23.526 133.985 24.1297 133.482 24.6506C132.979 25.1655 132.358 25.5679 131.618 25.858C130.878 26.142 130.047 26.2841 129.123 26.2841ZM137.957 26V12.3636H139.981V14.4233H140.123C140.371 13.7486 140.821 13.2011 141.472 12.7809C142.123 12.3607 142.857 12.1506 143.674 12.1506C143.828 12.1506 144.02 12.1535 144.251 12.1594C144.482 12.1654 144.656 12.1742 144.775 12.1861V14.3168C144.704 14.299 144.541 14.2724 144.287 14.2369C144.038 14.1954 143.775 14.1747 143.496 14.1747C142.834 14.1747 142.242 14.3138 141.721 14.592C141.206 14.8642 140.798 15.243 140.496 15.7283C140.2 16.2077 140.052 16.7552 140.052 17.3707V26H137.957Z" fill="white"/>
<path d="M55.7159 34.0909C55.6307 33.3712 55.285 32.8125 54.679 32.4148C54.0729 32.017 53.3295 31.8182 52.4489 31.8182C51.8049 31.8182 51.2415 31.9223 50.7585 32.1307C50.2803 32.339 49.9063 32.6255 49.6364 32.9901C49.3712 33.3546 49.2386 33.7689 49.2386 34.233C49.2386 34.6212 49.331 34.955 49.5156 35.2344C49.705 35.509 49.9465 35.7386 50.2401 35.9233C50.5336 36.1032 50.8414 36.2524 51.1634 36.3707C51.4853 36.4844 51.7812 36.5767 52.0511 36.6477L53.5284 37.0455C53.9072 37.1449 54.3286 37.2822 54.7926 37.4574C55.2614 37.6326 55.7088 37.8717 56.1349 38.1747C56.5658 38.473 56.9209 38.8565 57.2003 39.3253C57.4796 39.794 57.6193 40.3693 57.6193 41.0511C57.6193 41.8371 57.4134 42.5473 57.0014 43.1818C56.5942 43.8163 55.9976 44.3205 55.2116 44.6946C54.4304 45.0687 53.4811 45.2557 52.3636 45.2557C51.322 45.2557 50.42 45.0876 49.6577 44.7514C48.9001 44.4152 48.3035 43.9465 47.8679 43.3452C47.437 42.7438 47.1932 42.0455 47.1364 41.25H48.9545C49.0019 41.7992 49.1866 42.2538 49.5085 42.6136C49.8352 42.9687 50.2472 43.2339 50.7443 43.4091C51.2462 43.5795 51.786 43.6648 52.3636 43.6648C53.036 43.6648 53.6397 43.5559 54.1747 43.3381C54.7098 43.1155 55.1335 42.8078 55.446 42.4148C55.7585 42.017 55.9148 41.553 55.9148 41.0227C55.9148 40.5398 55.7798 40.1468 55.5099 39.8438C55.2401 39.5407 54.8849 39.2945 54.4446 39.1051C54.0043 38.9157 53.5284 38.75 53.017 38.608L51.2273 38.0966C50.0909 37.7699 49.1913 37.3035 48.5284 36.6974C47.8655 36.0914 47.5341 35.2983 47.5341 34.3182C47.5341 33.5038 47.7543 32.7936 48.1946 32.1875C48.6397 31.5767 49.2363 31.1032 49.9844 30.767C50.7372 30.4261 51.5777 30.2557 52.5057 30.2557C53.4432 30.2557 54.2765 30.4238 55.0057 30.7599C55.7348 31.0914 56.3125 31.5459 56.7386 32.1236C57.1695 32.7012 57.3968 33.357 57.4205 34.0909H55.7159ZM61.9641 38.4375V45H60.288V30.4545H61.9641V35.7955H62.1062C62.3619 35.232 62.7454 34.7846 63.2567 34.4531C63.7728 34.117 64.4594 33.9489 65.3164 33.9489C66.0598 33.9489 66.7108 34.098 67.2695 34.3963C67.8282 34.6899 68.2615 35.142 68.5692 35.7528C68.8817 36.3589 69.038 37.1307 69.038 38.0682V45H67.3619V38.1818C67.3619 37.3153 67.137 36.6454 66.6871 36.1719C66.2421 35.6937 65.6242 35.4545 64.8335 35.4545C64.2842 35.4545 63.7918 35.5705 63.3562 35.8026C62.9253 36.0346 62.5844 36.3731 62.3335 36.8182C62.0872 37.2633 61.9641 37.803 61.9641 38.4375ZM76.5362 45.2273C75.5514 45.2273 74.6873 44.9929 73.9439 44.5241C73.2053 44.0554 72.6276 43.3996 72.2109 42.5568C71.799 41.714 71.593 40.7292 71.593 39.6023C71.593 38.4659 71.799 37.474 72.2109 36.6264C72.6276 35.7789 73.2053 35.1207 73.9439 34.652C74.6873 34.1832 75.5514 33.9489 76.5362 33.9489C77.5211 33.9489 78.3828 34.1832 79.1214 34.652C79.8648 35.1207 80.4425 35.7789 80.8544 36.6264C81.2711 37.474 81.4794 38.4659 81.4794 39.6023C81.4794 40.7292 81.2711 41.714 80.8544 42.5568C80.4425 43.3996 79.8648 44.0554 79.1214 44.5241C78.3828 44.9929 77.5211 45.2273 76.5362 45.2273ZM76.5362 43.7216C77.2843 43.7216 77.8999 43.5298 78.3828 43.1463C78.8658 42.7628 79.2232 42.2585 79.4553 41.6335C79.6873 41.0085 79.8033 40.3314 79.8033 39.6023C79.8033 38.8731 79.6873 38.1937 79.4553 37.5639C79.2232 36.9342 78.8658 36.4252 78.3828 36.0369C77.8999 35.6487 77.2843 35.4545 76.5362 35.4545C75.7881 35.4545 75.1726 35.6487 74.6896 36.0369C74.2067 36.4252 73.8492 36.9342 73.6172 37.5639C73.3852 38.1937 73.2692 38.8731 73.2692 39.6023C73.2692 40.3314 73.3852 41.0085 73.6172 41.6335C73.8492 42.2585 74.2067 42.7628 74.6896 43.1463C75.1726 43.5298 75.7881 43.7216 76.5362 43.7216ZM84.038 49.0909V34.0909H85.6573V35.8239H85.8562C85.9793 35.6345 86.1497 35.393 86.3675 35.0994C86.5901 34.8011 86.9073 34.536 87.3192 34.304C87.7359 34.0672 88.2994 33.9489 89.0096 33.9489C89.9281 33.9489 90.7378 34.1785 91.4386 34.6378C92.1393 35.0971 92.6862 35.7481 93.0792 36.5909C93.4722 37.4337 93.6687 38.428 93.6687 39.5739C93.6687 40.7292 93.4722 41.7306 93.0792 42.5781C92.6862 43.4209 92.1417 44.0743 91.4457 44.5384C90.7496 44.9976 89.9471 45.2273 89.038 45.2273C88.3372 45.2273 87.7762 45.1113 87.3548 44.8793C86.9334 44.6425 86.609 44.375 86.3817 44.0767C86.1545 43.7737 85.9793 43.5227 85.8562 43.3239H85.7141V49.0909H84.038ZM85.6857 39.5455C85.6857 40.3693 85.8065 41.0961 86.0479 41.7259C86.2894 42.3509 86.6422 42.8409 87.1062 43.196C87.5702 43.5464 88.1384 43.7216 88.8107 43.7216C89.5115 43.7216 90.0962 43.5369 90.565 43.1676C91.0385 42.7936 91.3936 42.2917 91.6303 41.6619C91.8718 41.0275 91.9925 40.322 91.9925 39.5455C91.9925 38.7784 91.8742 38.0871 91.6374 37.4716C91.4054 36.8513 91.0527 36.3613 90.5792 36.0014C90.1104 35.6368 89.521 35.4545 88.8107 35.4545C88.1289 35.4545 87.556 35.6274 87.092 35.973C86.628 36.3139 86.2776 36.7921 86.0408 37.4077C85.8041 38.0185 85.6857 38.7311 85.6857 39.5455Z" fill="white"/>
<path d="M18.75 46.875L21.875 31.25L9.375 26.5625L31.25 3.125L28.125 18.75L40.625 23.4375L18.75 46.875Z" stroke="#FF597B" stroke-width="2" stroke-linecap="round" stroke-linejoin="round"/>
</svg>
